<?xml version="1.0" encoding="UTF-8" standalone="no"?>
<!-- Created with Inkscape (http://www.inkscape.org/) -->
<svg
   xmlns:dc="http://purl.org/dc/elements/1.1/"
   xmlns:cc="http://web.resource.org/cc/"
   xmlns:rdf="http://www.w3.org/1999/02/22-rdf-syntax-ns#"
   xmlns:svg="http://www.w3.org/2000/svg"
   xmlns="http://www.w3.org/2000/svg"
   xmlns:xlink="http://www.w3.org/1999/xlink"
   xmlns:sodipodi="http://sodipodi.sourceforge.net/DTD/sodipodi-0.dtd"
   xmlns:inkscape="http://www.inkscape.org/namespaces/inkscape"
   id="svg2"
   sodipodi:version="0.32"
   inkscape:version="0.45"
   width="256"
   height="256"
   version="1.0"
   sodipodi:docbase="/home/limkc/Desktop"
   sodipodi:docname="bitswash.svg"
   inkscape:output_extension="org.inkscape.output.svg.inkscape"
   sodipodi:modified="true">
  <metadata
     id="metadata7">
    <rdf:RDF>
      <cc:Work
         rdf:about="">
        <dc:format>image/svg+xml</dc:format>
        <dc:type
           rdf:resource="http://purl.org/dc/dcmitype/StillImage" />
      </cc:Work>
    </rdf:RDF>
  </metadata>
  <defs
     id="defs5">
    <linearGradient
       id="linearGradient3232">
      <stop
         style="stop-color:#ffffff;stop-opacity:1;"
         offset="0"
         id="stop3234" />
      <stop
         id="stop3139"
         offset="0.19"
         style="stop-color:#46faff;stop-opacity:1;" />
      <stop
         id="stop3265"
         offset="1"
         style="stop-color:#005759;stop-opacity:1;" />
    </linearGradient>
    <radialGradient
       inkscape:collect="always"
       xlink:href="#linearGradient3232"
       id="radialGradient3252"
       gradientUnits="userSpaceOnUse"
       gradientTransform="matrix(-0.3242129,-6.2329046,9.0812807,-0.4723743,96.998276,1146.4735)"
       cx="160.54243"
       cy="10.544342"
       fx="160.54243"
       fy="10.544342"
       r="21.565664" />
    <radialGradient
       inkscape:collect="always"
       xlink:href="#linearGradient3232"
       id="radialGradient3276"
       gradientUnits="userSpaceOnUse"
       gradientTransform="matrix(7.7302558e-2,1.4861206,-2.1652631,0.1126289,39.786843,-210.61382)"
       cx="159.49429"
       cy="6.6041474"
       fx="159.49429"
       fy="6.6041474"
       r="21.565664" />
    <radialGradient
       inkscape:collect="always"
       xlink:href="#linearGradient3232"
       id="radialGradient3280"
       gradientUnits="userSpaceOnUse"
       gradientTransform="matrix(0.3242129,6.2329046,-9.0812807,0.4723743,163.06864,-889.28369)"
       cx="160.54243"
       cy="10.544342"
       fx="160.54243"
       fy="10.544342"
       r="21.565664" />
  </defs>
  <sodipodi:namedview
     inkscape:window-height="626"
     inkscape:window-width="872"
     inkscape:pageshadow="2"
     inkscape:pageopacity="0.0"
     guidetolerance="10.0"
     gridtolerance="10.0"
     objecttolerance="10.0"
     borderopacity="1.0"
     bordercolor="#666666"
     pagecolor="#ffffff"
     id="base"
     inkscape:zoom="1.1241893"
     inkscape:cx="-46.8414"
     inkscape:cy="141.91109"
     inkscape:window-x="156"
     inkscape:window-y="72"
     inkscape:current-layer="svg2"
     width="256px"
     height="256px" />
  <path
     style="fill:#000000;fill-opacity:1;stroke:none;stroke-width:0.85600001;stroke-linecap:round;stroke-miterlimit:4;stroke-dasharray:none;stroke-opacity:0.53005461"
     d="M 134.40356,4.346645 C 70.764482,5.8102257 18.453469,69.585184 29.547007,132.41826 C 34.125116,180.49175 74.402081,223.14535 123.74018,224.94529 C 105.26286,220.00461 97.852413,249.98598 117.18665,252.82558 C 182.72818,256.63789 240.47506,193.04799 230.92935,128.08627 C 227.52592,78.819976 186.93794,34.009476 136.29187,32.226935 C 154.76919,37.167618 162.17963,7.1862421 142.8454,4.346645 C 140.05046,4.0746151 137.20771,4.2449055 134.40356,4.346645 z "
     id="path3254"
     sodipodi:nodetypes="cccccccc" />
  <path
     sodipodi:type="inkscape:offset"
     inkscape:radius="0"
     inkscape:original="M 129.15625 39 C 109.30914 39.231525 93.7504 45.598835 83.75 56.125 C 73.749603 66.651167 67.605371 81.777946 69.53125 100.15625 C 69.670263 102.72617 71.27362 104.98498 73.625 106.03125 C 75.976422 107.07752 78.622878 106.77348 80.625 105.15625 C 82.627116 103.53903 83.590874 100.89385 83.0625 98.375 C 81.130937 85.365626 86.595097 72.961993 93.625 65.5625 C 99.430962 59.45129 108.40458 54.896695 120.9375 53.34375 C 118.79576 54.367213 116.83078 55.537568 114.9375 56.78125 C 99.791233 66.730742 93.080529 79.500643 93.625 94.125 C 93.887285 101.28224 95.183834 108.54333 100.1875 115.78125 C 103.6778 120.83004 108.23461 124.403 113.40625 126.625 C 116.88624 128.12018 120.90501 126.74788 122.5 123.3125 C 124.09499 119.87713 122.61067 115.80855 119.1875 114.1875 C 115.60773 112.49229 112.70206 110.17325 111.40625 107.875 C 109.47856 104.45605 107.96021 100.44599 107.40625 93.125 C 107.00911 87.87674 111.40884 75.504471 122.5 68.21875 C 133.43597 61.034974 154.07602 53.141772 177.5 68 C 198.63837 83.581867 210.8125 109.92694 210.8125 141.3125 C 210.8125 191.51832 170.14332 232.1875 119.9375 232.1875 C 117.36471 231.97871 114.85048 233.20646 113.5 235.40625 C 112.14948 237.60605 112.14952 240.42521 113.5 242.625 C 114.85045 244.82478 117.36471 246.05254 119.9375 245.84375 C 177.55912 245.84375 224.46875 198.93412 224.46875 141.3125 C 224.46875 107.5215 210.81108 77.890366 187.71875 59.34375 C 187.67812 59.31112 187.63101 59.255201 187.59375 59.21875 C 186.16116 57.817224 182.57763 55.377471 182.15625 55.125 C 167.92917 45.415897 150.6191 39.608807 131.0625 39.125 C 130.44709 39.007204 129.79886 38.942855 129.15625 39 z "
     xlink:href="#path3211"
     style="fill:url(#radialGradient3276);fill-opacity:1;stroke:none;stroke-width:0.35600001;stroke-linecap:round;stroke-miterlimit:4;stroke-dasharray:none;stroke-opacity:1"
     id="path3278"
     inkscape:href="#path3211"
     d="M 108.71875,37.25 C 88.871645,37.481525 73.28165,43.817585 63.28125,54.34375 C 53.280852,64.869913 47.136621,79.996692 49.0625,98.375 C 49.201512,100.94491 50.80487,103.20373 53.15625,104.25 C 55.507666,105.29627 58.154128,104.99223 60.15625,103.375 C 62.158369,101.75778 63.122124,99.112604 62.59375,96.59375 C 60.662189,83.584376 66.126347,71.180743 73.15625,63.78125 C 78.962214,57.67004 87.967085,53.115445 100.5,51.5625 C 98.358262,52.585963 96.393282,53.756318 94.5,55 C 79.353736,64.949492 72.611779,77.719393 73.15625,92.34375 C 73.418537,99.500997 74.715086,106.76208 79.71875,114 C 83.209051,119.04879 87.765867,122.62175 92.9375,124.84375 C 96.417487,126.33893 100.46751,124.96663 102.0625,121.53125 C 103.65749,118.09588 102.14192,114.0273 98.71875,112.40625 C 95.138979,110.71104 92.233315,108.392 90.9375,106.09375 C 89.009808,102.6748 87.491462,98.664747 86.9375,91.34375 C 86.540362,86.09549 90.940091,73.723221 102.03125,66.4375 C 112.96722,59.253717 133.60727,51.360522 157.03125,66.21875 C 178.16962,81.800617 190.34375,108.14569 190.34375,139.53125 C 190.34375,189.73708 149.70582,230.40625 99.5,230.40625 C 96.927211,230.19747 94.41298,231.42521 93.0625,233.625 C 91.711982,235.82479 91.71202,238.64396 93.0625,240.84375 C 94.412947,243.04353 96.927211,244.27129 99.5,244.0625 C 157.12162,244.0625 204,197.15287 204,139.53125 C 204,105.74026 190.34233,76.109116 167.25,57.5625 C 167.20937,57.529871 167.16226,57.473951 167.125,57.4375 C 165.69242,56.035974 162.10888,53.596221 161.6875,53.34375 C 147.46043,43.634647 130.15035,37.827557 110.59375,37.34375 C 109.97834,37.225955 109.36136,37.192855 108.71875,37.25 z " />
  <path
     style="fill:url(#radialGradient3280);fill-opacity:1;stroke:none;stroke-width:0.35600001;stroke-linecap:round;stroke-miterlimit:4;stroke-dasharray:none;stroke-opacity:1"
     d="M 129.16891,39.015537 C 109.3218,39.247062 93.738874,45.595209 83.738474,56.121374 C 73.738075,66.647539 67.590098,81.764336 69.515977,100.14264 C 69.654989,102.71256 71.27444,104.98345 73.62582,106.02972 C 75.977238,107.07599 78.621541,106.75833 80.623663,105.1411 C 82.625781,103.52388 83.595725,100.88427 83.067351,98.365416 C 81.135789,85.356043 86.59441,72.962398 93.624313,65.562905 C 99.430275,59.451694 108.4163,54.897396 120.94922,53.344451 C 118.80748,54.367915 116.84435,55.544152 114.95107,56.787834 C 99.804806,66.737326 93.079842,79.4853 93.624313,94.109657 C 93.886598,101.2669 95.174184,108.53173 100.17785,115.76965 C 103.66815,120.81844 108.22614,124.41203 113.39778,126.63403 C 116.87777,128.12921 120.91109,126.7371 122.50608,123.30172 C 124.10107,119.86635 122.59694,115.81447 119.17377,114.19342 C 115.594,112.49821 112.69242,110.18144 111.39661,107.88319 C 109.46892,104.46424 107.9518,100.43096 107.39784,93.109965 C 107.0007,87.861702 111.41314,75.514469 122.5043,68.228748 C 133.44027,61.044969 154.06336,53.148369 177.48734,68.006597 C 198.62571,83.588466 210.81039,109.93176 210.81039,141.31732 C 210.81039,191.52314 170.15535,232.17819 119.94953,232.17819 C 117.37674,231.9694 114.85755,233.19963 113.50707,235.39942 C 112.15655,237.59921 112.15659,240.41963 113.50707,242.61942 C 114.85752,244.8192 117.37674,246.04943 119.94953,245.84064 C 177.57115,245.84064 224.47285,198.93894 224.47285,141.31732 C 224.47285,107.52632 210.79874,77.889218 187.70641,59.342602 C 187.66578,59.309972 187.63259,59.267977 187.59533,59.231526 C 186.16275,57.829999 182.57395,55.374153 182.15257,55.121682 C 167.92549,45.412578 150.61381,39.61042 131.05721,39.126613 C 130.4418,39.008818 129.81152,38.958392 129.16891,39.015537 z "
     id="path3211"
     sodipodi:nodetypes="cscsscscssssssssscscsscsssccc" />
  <path
     sodipodi:nodetypes="cscsscscssssssssscscsscsssccc"
     id="path3250"
     d="M 130.89801,218.17423 C 150.74512,217.94269 166.32804,211.59457 176.32844,201.06839 C 186.32884,190.54221 193.65925,176.39125 191.73338,161.74371 C 191.59436,159.1738 189.97491,156.90289 187.62353,155.85664 C 185.27212,154.81038 182.62781,155.12804 180.62569,156.74525 C 178.62357,158.36246 177.65363,161.00207 178.182,163.52094 C 179.64722,174.66491 173.47251,184.22736 166.44261,191.62686 C 160.63664,197.73808 151.65062,202.29237 139.1177,203.84531 C 141.25944,202.82184 143.22257,201.6456 145.11585,200.40193 C 160.26211,190.45243 167.37042,175.34164 166.44261,163.0801 C 165.79495,154.52132 163.98381,147.35681 159.88907,141.42012 C 155.79433,135.48342 149.74223,131.3787 142.0057,127.75767 C 138.57031,126.16267 134.49239,127.65459 132.89739,131.08997 C 131.3024,134.52536 132.79432,138.60328 136.2297,140.19828 C 142.84071,143.2925 146.4418,146.07564 148.67031,149.30657 C 150.89881,152.53751 152.11511,156.75882 152.66908,164.0798 C 153.06621,169.32806 148.65378,181.6753 137.56262,188.96101 C 126.62665,196.14479 108.97136,204.70089 82.579575,189.18316 C 61.441208,173.6013 49.25652,147.258 49.25652,115.87244 C 49.25652,65.666629 89.911573,25.01157 140.11739,25.01157 C 142.69018,25.22036 145.20936,23.990128 146.55985,21.790343 C 147.91036,19.590558 147.91033,16.770133 146.55985,14.570348 C 145.2094,12.370563 142.69018,11.140331 140.11739,11.34912 C 82.495761,11.34912 35.594067,58.250816 35.594067,115.87244 C 35.594067,149.66344 49.26818,179.30056 72.360505,197.84716 C 72.401133,197.87979 72.431582,197.92483 72.471585,197.95824 C 74.338344,199.51743 76.473511,200.87004 77.914348,202.06808 C 92.14143,211.7772 109.4531,217.57935 129.0097,218.06315 C 129.62512,218.18095 130.2554,218.23139 130.89801,218.17423 z "
     style="fill:url(#radialGradient3252);fill-opacity:1;stroke:none;stroke-width:0.85600001;stroke-linecap:round;stroke-miterlimit:4;stroke-dasharray:none;stroke-opacity:0.53005461" />
</svg>
